<svg width="48" height="48" viewBox="0 0 48 48" fill="none" xmlns="http://www.w3.org/2000/svg">
<path d="M39.558 8.4439C37.096 5.97154 34.0797 4.1222 30.7595 3.04946C27.4394 1.97672 23.9112 1.71153 20.468 2.2759C16.0272 3.02183 11.9191 5.10331 8.69119 8.24299C5.46325 11.3827 3.26871 15.4315 2.39999 19.8499C1.52474 24.4116 2.12144 29.1334 4.10399 33.3339L2.88199 39.3999C2.7263 40.1842 2.76636 40.9947 2.99861 41.7598C3.23086 42.5249 3.64814 43.221 4.21353 43.7864C4.77891 44.3517 5.47496 44.769 6.24006 45.0013C7.00517 45.2335 7.81572 45.2736 8.6 45.1179L14.658 43.9059C17.5786 45.2868 20.7694 46.002 24 45.9999C25.393 45.9994 26.783 45.8695 28.152 45.6119C32.5724 44.7419 36.6226 42.5452 39.7627 39.3146C42.9029 36.0841 44.9837 31.9732 45.728 27.5299C46.2926 24.0871 46.0273 20.5593 44.9542 17.2398C43.8811 13.9202 42.0311 10.9047 39.558 8.4439ZM41.772 26.9139C41.3166 29.7094 40.2072 32.3578 38.5342 34.6432C36.8611 36.9286 34.6717 38.7863 32.1445 40.0651C29.6172 41.3438 26.8236 42.0073 23.9913 42.0016C21.1589 41.9958 18.368 41.3209 15.846 40.0319C15.5652 39.8873 15.2539 39.8118 14.938 39.8119C14.8037 39.8119 14.6697 39.8253 14.538 39.8519L7.81799 41.1959C7.67811 41.2236 7.53355 41.2164 7.39711 41.1749C7.26067 41.1335 7.13655 41.059 7.03571 40.9582C6.93488 40.8573 6.86044 40.7332 6.81898 40.5968C6.77752 40.4603 6.77031 40.3158 6.79799 40.1759L8.142 33.4539C8.23088 33.0127 8.16742 32.5544 7.96199 32.1539C6.67385 29.6313 5.99983 26.8401 5.99484 24.0077C5.98985 21.1753 6.65403 18.3817 7.93327 15.8546C9.21252 13.3275 11.0706 11.1383 13.3563 9.46545C15.6419 7.79256 18.2904 6.68325 21.086 6.2279C23.9064 5.76874 26.7955 5.98673 29.515 6.86389C32.2345 7.74105 34.7066 9.25224 36.7271 11.2728C38.7477 13.2934 40.2589 15.7654 41.136 18.4849C42.0132 21.2044 42.2312 24.0935 41.772 26.9139Z" fill="#98A2B3"/>
<path d="M26 30V22C26 21.4696 25.7893 20.9609 25.4142 20.5858C25.0391 20.2107 24.5304 20 24 20H22C21.4696 20 20.9609 20.2107 20.5858 20.5858C20.2107 20.9609 20 21.4696 20 22C20 22.5304 20.2107 23.0391 20.5858 23.4142C20.9609 23.7893 21.4696 24 22 24V32C22 32.5304 22.2107 33.0391 22.5858 33.4142C22.9609 33.7893 23.4696 34 24 34H26C26.5304 34 27.0391 33.7893 27.4142 33.4142C27.7893 33.0391 28 32.5304 28 32C28 31.4696 27.7893 30.9609 27.4142 30.5858C27.0391 30.2107 26.5304 30 26 30Z" fill="#98A2B3"/>
<path d="M24 18C25.1046 18 26 17.1046 26 16C26 14.8954 25.1046 14 24 14C22.8954 14 22 14.8954 22 16C22 17.1046 22.8954 18 24 18Z" fill="#98A2B3"/>
</svg>
