<svg width="48" height="48" viewBox="0 0 48 48" fill="none" xmlns="http://www.w3.org/2000/svg">
<path d="M4.85358 12.0784C5.12568 11.2079 6.03713 10.7399 6.88287 11.0569L6.89166 11.0598L12.6426 13.093C13.1159 13.3354 13.4685 13.7255 13.5616 14.0979L13.669 14.5247L14.1055 14.4729C16.7663 14.1578 20.0742 13.966 23.3243 14.1145C26.5828 14.2634 29.7431 14.7534 32.1329 15.7776L32.6475 15.9983L32.8087 15.4612C32.9766 14.9017 33.3604 14.53 33.7755 14.3743H33.7764L39.7686 12.1174C40.6054 11.8447 41.5767 12.2528 41.8887 13.0325L41.8897 13.0354L46.6182 24.679V24.6799C46.9378 25.479 46.5726 26.4001 45.7491 26.7893L40.2862 29.1711C40.0115 29.2395 39.8002 29.2883 39.5997 29.2883C39.1247 29.2882 38.6945 29.0808 38.3565 28.6868L38.0674 28.3499L37.6993 28.5959L36.6407 29.302L36.2569 29.5579L36.4805 29.9602C36.7627 30.4681 36.8194 31.1581 36.5948 31.72L36.5909 31.7307C36.4169 32.1945 36.1195 32.5566 35.7003 32.7942C35.277 33.034 34.6944 33.166 33.9239 33.1018L33.4796 33.0647L33.3917 33.5022C33.2606 34.1572 32.9601 34.7894 32.3487 35.0442L32.2579 35.0823L32.2276 35.1116C32.2082 35.1216 32.1799 35.1369 32.1417 35.1536C32.0498 35.1936 31.9174 35.2433 31.7569 35.2903C31.4319 35.3854 31.0173 35.4606 30.6006 35.4309L30.1612 35.3997L30.0743 35.8313C30.0185 36.1101 29.9096 36.3818 29.6905 36.6604C29.4367 36.9265 28.9095 37.1057 28.2706 37.1057C27.6277 37.1057 27.0699 36.9245 26.8106 36.6917L25.7315 35.6125L25.3819 35.8918C24.1963 36.8403 22.5302 36.6517 20.8751 35.9622L20.8272 35.9417L10.7589 27.9153L10.293 27.5442L10.0079 28.0667C9.71446 28.6043 8.99091 28.8965 8.26862 28.676L2.2735 26.7014C1.46608 26.4311 1.04501 25.6361 1.25885 24.8342L4.85358 12.0784ZM19.6846 14.5354L19.4122 14.5403L19.2686 14.7717C18.8024 15.5249 18.1262 16.7284 17.7198 17.9475C17.5166 18.557 17.3723 19.195 17.3672 19.7961C17.3623 20.3944 17.4961 20.9929 17.8848 21.4797V21.4807C18.2027 21.8963 18.6273 22.1109 19.1006 22.1594C19.5527 22.2057 20.0283 22.0991 20.4874 21.927C21.4021 21.584 22.421 20.9123 23.3702 20.2444L23.3731 20.2424C23.866 19.8904 24.02 19.7953 24.1417 19.7512C24.3081 19.7114 24.7395 19.6875 25.4151 19.8342C26.093 19.9815 26.9837 20.2931 28.0333 20.8879C30.1314 22.0772 32.8655 24.3995 35.796 28.7952L36.0694 29.2053L36.4835 28.9377L37.6837 28.1614L38.046 27.926L37.8663 27.5334L32.9962 16.8743L32.9249 16.718L32.7715 16.6389L32.4219 16.4641C30.644 15.6154 28.4802 15.124 26.3135 14.8479C23.9961 14.5526 21.64 14.4998 19.6846 14.5354ZM41.4727 13.2913C41.2546 12.7545 40.633 12.3874 40.0294 12.554L39.918 12.5911L33.918 14.8499L33.9083 14.8538C33.6312 14.9646 33.3902 15.1673 33.2501 15.4475C33.1074 15.7331 33.0869 16.0653 33.1964 16.3938L33.2335 16.5051L33.2696 16.5413C33.2784 16.5582 33.29 16.58 33.3038 16.6077C33.346 16.6927 33.4055 16.817 33.4805 16.9758C33.6301 17.2927 33.8374 17.7397 34.0831 18.2756C34.5743 19.3472 35.2176 20.7692 35.8614 22.2024C36.5051 23.6354 37.1485 25.0789 37.6397 26.1946C37.8854 26.7526 38.0934 27.2272 38.2432 27.5774C38.3182 27.7526 38.378 27.8951 38.421 28.0002C38.4685 28.1165 38.4844 28.1614 38.4844 28.1614L38.4913 28.1858L38.5001 28.2092C38.7615 28.8628 39.5057 29.0662 40.0684 28.8411L40.0821 28.8352L43.3292 27.4231L42.9786 26.4875C41.9684 26.8065 41.0176 26.0712 41.0176 25.0588C41.0177 24.2057 41.7113 23.5121 42.5645 23.512C43.4178 23.512 44.1114 24.2056 44.1114 25.0588C44.1114 25.6374 43.8018 26.114 43.3106 26.387L43.7559 27.2805L45.6622 26.4338L45.6612 26.4319C46.3009 26.1644 46.4994 25.431 46.2764 24.8733L46.2735 24.8674L41.4737 13.2913H41.4727ZM6.74225 11.4622C6.12761 11.2215 5.50895 11.5656 5.32819 12.137L5.30768 12.2151L1.63678 24.9915L1.63483 24.9993L1.63287 25.0081C1.55837 25.3061 1.6399 25.5914 1.74127 25.7942C1.84404 25.9997 2.00363 26.195 2.19342 26.3215L2.25006 26.3596L2.31451 26.3811L8.31451 28.3577L8.34283 28.3665L8.37213 28.3723C8.63731 28.4254 8.93084 28.4055 9.18854 28.2766C9.39748 28.1721 9.56979 27.9996 9.66901 27.7708C9.67676 27.7598 9.68508 27.7529 9.68854 27.7473C9.70758 27.7166 9.71924 27.6898 9.72272 27.6819C9.74236 27.637 9.76004 27.574 9.76959 27.5413C9.78469 27.4895 9.80615 27.4142 9.83502 27.3098C10.0654 26.4768 10.8247 23.6317 13.1182 14.9514H13.1192L13.1202 14.9446C13.2541 14.4085 12.9724 13.9034 12.5059 13.6702L12.4844 13.6594L12.461 13.6506L6.74323 11.4622H6.74225ZM42.5645 23.8528C41.9355 23.8529 41.4297 24.3595 41.4297 24.9885C41.4299 25.6174 41.9356 26.1232 42.5645 26.1233C43.1935 26.1233 43.7001 25.6175 43.7003 24.9885C43.7003 24.3594 43.1936 23.8528 42.5645 23.8528ZM32.9708 32.8508L32.8506 32.7112L27.9092 26.9221L27.8965 26.9075L27.8829 26.8938L27.8546 26.8518C27.8494 26.8373 27.8488 26.8216 27.8506 26.803C27.8554 26.7558 27.8829 26.6829 27.9532 26.6125C27.9814 26.5843 28.0071 26.5767 28.044 26.5803C28.0893 26.5848 28.1579 26.6108 28.2256 26.675L33.1495 32.4426L33.2559 32.5676L33.4171 32.6047C33.8971 32.7155 34.4459 32.7898 34.9464 32.676C35.4852 32.5535 35.9441 32.2165 36.1846 31.5911C36.4146 30.993 36.3323 30.4828 36.1163 30.1047C35.9679 29.8452 35.7587 29.6518 35.5655 29.5393C29.7382 20.5071 24.9045 20.1829 24.2823 20.1829H24.1495L24.0342 20.2483C23.6486 20.4687 23.1065 20.8518 22.5577 21.2083C21.9859 21.5796 21.3591 21.9553 20.7247 22.2249C20.0867 22.4958 19.4786 22.6424 18.9346 22.5959C18.4135 22.5514 17.917 22.3283 17.4737 21.7834C16.8345 20.9682 16.7727 19.8646 17.0411 18.6653C17.3078 17.4734 17.8802 16.2874 18.3653 15.4211L18.8214 14.6067L17.8907 14.678C16.0513 14.8195 14.5654 14.9606 13.8565 15.0315L13.5118 15.0667L13.4229 15.4006C11.3406 23.2005 10.6527 25.7402 10.4503 26.4797C10.4339 26.5395 10.4207 26.5874 10.4102 26.6252C10.4058 26.6402 10.4015 26.6553 10.3975 26.6692C10.3901 26.6952 10.3827 26.7203 10.378 26.7375C10.376 26.745 10.3741 26.7552 10.3721 26.7629C10.3717 26.7647 10.3697 26.77 10.3682 26.7766C10.368 26.7777 10.365 26.7915 10.3624 26.8079C10.3606 26.8204 10.3571 26.8624 10.3565 26.8938L10.3106 27.0901L10.5616 27.2874L21.0792 35.5461L21.1251 35.5813L21.1768 35.6057C22.2668 36.1143 23.8433 36.5045 25.0674 35.6301L25.5049 35.3176L25.1612 34.9045L21.3497 30.3157L21.335 30.2981L21.3184 30.2815L21.2901 30.2395C21.2851 30.225 21.2843 30.2092 21.2862 30.1907C21.291 30.1435 21.3185 30.0705 21.3887 30.0002C21.417 29.9721 21.4426 29.9643 21.4796 29.968C21.5245 29.9725 21.5921 29.9986 21.6592 30.0618L25.8018 35.1174L25.8321 35.1545L25.8702 35.1858C26.1477 35.4143 26.3334 35.6045 26.4776 35.7629C26.6051 35.903 26.7552 36.0832 26.8907 36.2083C27.0557 36.3606 27.2429 36.4795 27.503 36.552C27.7431 36.6189 28.0268 36.6409 28.376 36.6409H28.584L28.6006 36.6233C28.6963 36.6197 28.8296 36.6092 28.9708 36.5579C29.1649 36.4873 29.3546 36.3532 29.4952 36.1282C29.6295 35.9132 29.7016 35.6446 29.7227 35.3274L29.7354 35.1331L29.6133 34.9807L24.3995 28.4993C24.3907 28.4867 24.3678 28.435 24.3799 28.3499C24.3924 28.263 24.4304 28.2205 24.4415 28.2122C24.4526 28.2038 24.504 28.1793 24.5909 28.1917C24.6779 28.2041 24.7212 28.2421 24.7296 28.2532L24.7344 28.26L24.7403 28.2668L29.963 34.76L30.0801 34.9055L30.2637 34.9387C30.7474 35.0266 31.1951 34.9593 31.5157 34.8792C31.6778 34.8386 31.8134 34.7932 31.9083 34.76C31.9398 34.749 31.9611 34.7418 31.9786 34.7356H32.0089L32.1026 34.6946C32.5379 34.508 32.7474 34.1205 32.8477 33.8196C32.9499 33.5129 32.9708 33.2079 32.9708 33.0354V32.8508Z" fill="#98A2B3" stroke="#98A2B3"/>
<path d="M5.64706 26.4C6.77648 26.4 7.69412 25.4824 7.69412 24.353C7.69412 23.2236 6.77648 22.3059 5.64706 22.3059C4.51765 22.3059 3.60001 23.2236 3.60001 24.353C3.60001 25.4824 4.51765 26.4 5.64706 26.4ZM5.64706 23.7177C6.00001 23.7177 6.28236 24 6.28236 24.353C6.28236 24.7059 5.92942 24.9883 5.64706 24.9883C5.36471 24.9883 5.01177 24.7059 5.01177 24.353C5.01177 24 5.29412 23.7177 5.64706 23.7177Z" fill="#98A2B3"/>
</svg>
