<svg width="48" height="48" viewBox="0 0 48 48" fill="none" xmlns="http://www.w3.org/2000/svg">
<path d="M15.4785 1.14893C16.351 0.646107 17.4059 0.756065 18.1631 1.10986C18.9139 1.46103 19.5195 2.00025 20.0654 2.59814H20.0645C21.1419 3.77322 21.9974 5.23055 22.5313 6.33154C23.8409 8.59488 24.5866 10.495 24.6172 12.228V12.229C24.6435 13.8827 23.8295 15.3595 22.502 16.2407L22.2295 16.4087L20.0225 17.6782C19.4991 17.9801 19.182 18.4922 19.043 19.1724L18.9941 19.4741C18.945 19.8843 18.9732 20.3277 19.0479 20.7271C19.1228 21.1279 19.243 21.4734 19.3691 21.6909L24.8164 31.0806C25.0769 31.5251 25.7895 32.1865 26.5645 32.5151C27.3361 32.8424 28.0432 32.871 28.6416 32.5269L30.8555 31.2573L31.1377 31.1069C32.569 30.4049 34.2616 30.4472 35.6856 31.2954C37.1803 32.1856 38.4556 33.7783 39.7705 36.0317C40.4667 37.0451 41.3039 38.509 41.7891 40.0288L41.8779 40.3188C42.0473 40.9009 42.1601 41.4947 42.1494 42.1079L42.1338 42.4155C42.0636 43.2452 41.6315 44.2019 40.7598 44.7046H40.7588L38.9824 45.7261L38.9766 45.73L38.9756 45.729C38.9368 45.749 38.893 45.7697 38.8447 45.7886L38.8457 45.7896C33.9405 47.9285 29.1243 47.4432 25.085 45.3472C21.0565 43.254 17.7589 39.6338 15.4619 35.4712L15.4551 35.4585L15.4541 35.4556L15.4512 35.4507L10.8828 27.5825C8.39698 23.5165 6.88617 18.8573 7.08106 14.3345C7.27439 9.8034 9.263 5.40542 13.5772 2.24854L13.585 2.24268L13.7051 2.16943L15.4785 1.14893ZM16.8272 3.48096L16.8281 3.48193L15.166 4.43115C11.5021 7.12121 9.94358 10.6127 9.7793 14.4448C9.62626 18.0496 10.7764 21.9605 12.7842 25.48L13.1973 26.1782L13.207 26.1958L13.209 26.2017C13.2096 26.2028 13.2102 26.2042 13.2109 26.2056L13.2119 26.2085L17.7979 34.1157C17.7987 34.1168 17.8001 34.1176 17.8008 34.1187C17.8022 34.1206 17.8035 34.1227 17.8047 34.1245L17.8106 34.1304L17.8232 34.1519C19.9093 37.9485 22.9025 41.1776 26.3359 42.9575C29.7521 44.7329 33.5648 45.1407 37.7334 43.3325L39.4063 42.3726C39.4111 42.3697 39.4157 42.3671 39.4199 42.3647C39.421 42.3589 39.4235 42.3516 39.4248 42.3423C39.4296 42.3083 39.434 42.2599 39.4404 42.188L39.4443 42.0776C39.4433 41.7953 39.372 41.3475 39.2119 40.8481C38.8435 39.7027 38.0764 38.3188 37.5127 37.5063L37.5107 37.5034C37.4906 37.4729 37.4723 37.4435 37.4531 37.4097L37.2266 37.0278C36.1021 35.1708 35.074 34.0677 34.2891 33.6011V33.6001C33.865 33.3473 33.5478 33.2367 33.2441 33.2368C32.94 33.237 32.6258 33.3489 32.207 33.5894L29.9932 34.854C28.5029 35.7111 26.8212 35.5474 25.5029 34.9878C24.27 34.465 23.2499 33.6323 22.6016 32.6304L22.4766 32.4272L17.0283 23.0366C16.3943 21.9416 16.1371 20.5629 16.3106 19.1499L16.3486 18.8833C16.5728 17.5455 17.2721 16.1476 18.6699 15.3433L20.8809 14.0708C21.2997 13.8303 21.5538 13.6151 21.7061 13.353C21.858 13.0915 21.9205 12.7631 21.9121 12.272C21.8962 11.3025 21.3873 9.72814 20.1748 7.63818V7.63721C20.1613 7.61519 20.1408 7.58314 20.124 7.54639L19.9463 7.19092C19.492 6.32044 18.7743 5.18667 18.0635 4.40869V4.40771C17.7073 4.02223 17.3525 3.73596 17.1084 3.59424L17.0107 3.54248C16.9451 3.51152 16.8999 3.49147 16.8682 3.479C16.8583 3.47512 16.8506 3.4722 16.8447 3.47021C16.8395 3.47342 16.8337 3.47727 16.8272 3.48096Z" fill="#98A2B3" stroke="#98A2B3" stroke-width="0.3"/>
</svg>
