<svg width="25" height="24" viewBox="0 0 25 24" fill="none" xmlns="http://www.w3.org/2000/svg">
<g clip-path="url(#clip0_1456_942)">
<path d="M23.4564 13.7828C23.1956 13.7828 22.9347 13.6784 22.726 13.4958L12.4999 3.50452L2.27383 13.4958C1.85644 13.8871 1.20427 13.8871 0.786878 13.4697C0.395574 13.0523 0.395574 12.4002 0.812965 11.9828L11.7695 1.28713C12.1869 0.895826 12.813 0.895826 13.2304 1.28713L24.1869 11.9828C24.6043 12.3741 24.6043 13.0523 24.213 13.4697C24.0043 13.6784 23.7173 13.7828 23.4564 13.7828ZM21.1608 23.9567V13.7567C21.1608 13.1828 20.6912 12.7132 20.1173 12.7132C19.5434 12.7132 19.0738 13.1828 19.0738 13.7567V22.9132H15.813V17.3306C15.813 16.5741 15.1869 15.948 14.4304 15.948H10.5695C9.81296 15.948 9.18688 16.5741 9.18688 17.3306V22.9132H5.92601V13.7567C5.92601 13.1828 5.45644 12.7132 4.88253 12.7132C4.30862 12.7132 3.83905 13.1828 3.83905 13.7567V23.9567C3.83905 24.5306 4.30862 25.0002 4.88253 25.0002H10.2304C10.8043 25.0002 11.2738 24.5306 11.2738 23.9567V18.035H13.7521V23.9567C13.7521 24.5306 14.2217 25.0002 14.7956 25.0002H20.1434C20.7173 25.0002 21.1608 24.5306 21.1608 23.9567Z" fill="#98A2B3"/>
</g>
<defs>
<clipPath id="clip0_1456_942">
<rect width="24" height="24" fill="white" transform="translate(0.5)"/>
</clipPath>
</defs>
</svg>
