<svg width="48" height="48" viewBox="0 0 48 48" fill="none" xmlns="http://www.w3.org/2000/svg">
<path d="M43.7887 26.6681C43.5963 26.4753 43.355 26.3385 43.0908 26.2724C42.8265 26.2064 42.5493 26.2135 42.2887 26.2931C39.4286 27.1578 36.3874 27.2303 33.4893 26.5029C30.5911 25.7755 27.9446 24.2754 25.8318 22.1626C23.7189 20.0497 22.2189 17.4032 21.4915 14.5051C20.7641 11.6069 20.8366 8.56576 21.7012 5.70558C21.7815 5.44496 21.7892 5.16739 21.7235 4.90273C21.6578 4.63807 21.5212 4.39633 21.3283 4.2035C21.1355 4.01067 20.8938 3.87406 20.6291 3.80835C20.3644 3.74265 20.0869 3.75033 19.8262 3.83058C15.8719 5.04192 12.4004 7.46957 9.90562 10.7681C7.7239 13.6647 6.3931 17.1123 6.06275 20.7235C5.73239 24.3348 6.41556 27.9666 8.03551 31.211C9.65547 34.4554 12.148 37.1838 15.2331 39.0896C18.3182 40.9955 21.8737 42.0034 25.5 42C29.7306 42.013 33.8487 40.6377 37.2225 38.085C40.521 35.5902 42.9487 32.1187 44.16 28.1643C44.2393 27.9047 44.2467 27.6284 44.1813 27.3649C44.1159 27.1014 43.9802 26.8605 43.7887 26.6681ZM35.4187 35.6887C32.2416 38.0817 28.3071 39.2465 24.3393 38.9687C20.3715 38.6908 16.6376 36.9891 13.825 34.1767C11.0124 31.3643 9.31034 27.6306 9.03219 23.6628C8.75405 19.6951 9.91852 15.7604 12.3112 12.5831C13.8701 10.5244 15.8855 8.85567 18.1987 7.70808C18.067 8.63288 18.0006 9.56582 18 10.5C18.0055 15.67 20.0617 20.6267 23.7174 24.2825C27.3732 27.9383 32.33 29.9945 37.5 30C38.436 29.9997 39.3708 29.9333 40.2975 29.8012C39.1488 32.1149 37.4787 34.1303 35.4187 35.6887Z" fill="#98A2B3"/>
</svg>
