<svg width="48" height="48" viewBox="0 0 48 48" fill="none" xmlns="http://www.w3.org/2000/svg">
<path d="M21.1516 2.13086C22.7486 0.585818 25.2517 0.585889 26.8488 2.13086L29.6476 4.83887C29.9273 5.1094 30.308 5.23308 30.6935 5.17871L34.55 4.63379C36.7498 4.32273 38.7745 5.79375 39.1584 7.98242L39.8312 11.8184C39.8986 12.2014 40.1341 12.5257 40.4777 12.708L43.9182 14.5332C45.881 15.5747 46.6546 17.9548 45.6789 19.9512L43.968 23.4502C43.7972 23.7997 43.7972 24.2002 43.968 24.5498L45.6789 28.0488C46.6546 30.0452 45.8809 32.4253 43.9182 33.4668L40.4777 35.292C40.134 35.4745 39.8985 35.7993 39.8312 36.1826L39.1584 40.0176C38.7745 42.2062 36.7507 43.6783 34.55 43.3672L30.6935 42.8213C30.3081 42.7673 29.9274 42.8907 29.6476 43.1611L26.8488 45.8691C26.0507 46.6414 25.0251 47.0272 24.0002 47.0273C22.9749 47.0274 21.95 46.6415 21.1516 45.8691L18.3527 43.1611C18.0729 42.8906 17.6919 42.7667 17.3068 42.8213L13.4504 43.3672C13.2535 43.395 13.0576 43.4082 12.8644 43.4082C10.9005 43.4084 9.19067 42.0108 8.841 40.0186L8.16913 36.1826C8.10182 35.7993 7.86554 35.4744 7.52167 35.292L4.08221 33.4668C2.11928 32.4253 1.3456 30.0453 2.32147 28.0488L4.03143 24.5498C4.20227 24.2002 4.20235 23.7999 4.03143 23.4502L2.32147 19.9512C1.3459 17.9548 2.11936 15.5746 4.08221 14.5332L7.52264 12.708C7.86618 12.5255 8.10178 12.2015 8.16913 11.8184L8.841 7.98242C9.22494 5.79372 11.2498 4.32247 13.4504 4.63379L17.3068 5.17871C17.6923 5.23286 18.073 5.10946 18.3527 4.83887L21.1516 2.13086ZM24.8703 4.17578C24.3817 3.70358 23.6174 3.70342 23.1291 4.17578L20.3303 6.88379C19.4156 7.7684 18.1671 8.17345 16.9074 7.99512L13.0519 7.4502C12.3788 7.35514 11.7603 7.80421 11.6428 8.47363L10.9699 12.3096C10.75 13.5628 9.97941 14.6242 8.85565 15.2207L5.41522 17.0459C4.81481 17.3644 4.57867 18.0915 4.87714 18.7021L6.5871 22.2012C7.14574 23.3443 7.14574 24.6557 6.5871 25.7988L4.87714 29.2979C4.57867 29.9085 4.81482 30.6356 5.41522 30.9541L8.85565 32.7793C9.97959 33.3757 10.751 34.4371 10.9709 35.6904L11.6437 39.5264C11.7613 40.1957 12.3795 40.6448 13.0519 40.5498L16.9084 40.0049C17.1033 39.9773 17.2982 39.9629 17.4914 39.9629C18.5466 39.9629 19.5574 40.3688 20.3303 41.1162L23.1291 43.8242C23.6176 44.2966 24.3819 44.2964 24.8703 43.8242L27.6701 41.1162C28.5847 40.2318 29.832 39.8264 31.092 40.0049L34.9484 40.5498C35.6215 40.6446 36.2392 40.1957 36.3566 39.5264L37.0295 35.6904C37.2494 34.4371 38.0208 33.3758 39.1447 32.7793L42.5851 30.9541C43.1852 30.6355 43.4216 29.9085 43.1232 29.2979L41.4123 25.7988C40.8538 24.6559 40.8538 23.3441 41.4123 22.2012L43.1232 18.7021C43.4215 18.0917 43.1853 17.3645 42.5851 17.0459L39.1447 15.2207C38.0206 14.6244 37.2494 13.563 37.0295 12.3096L36.3566 8.47363C36.2392 7.80424 35.6201 7.35503 34.9474 7.4502L31.092 7.99512C29.832 8.17346 28.5838 7.76859 27.6691 6.88379L24.8703 4.17578Z" fill="#98A2B3" stroke="#98A2B3" stroke-width="0.2"/>
<path d="M33.6623 14.3377C33.146 13.8213 32.3086 13.8213 31.7922 14.3377L14.3378 31.7922C13.8214 32.3086 13.8214 33.1459 14.3378 33.6623C14.596 33.9205 14.9345 34.0497 15.2728 34.0497C15.6112 34.0497 15.9497 33.9206 16.2078 33.6623L33.6622 16.2079C34.1788 15.6915 34.1788 14.8542 33.6623 14.3377Z" fill="#98A2B3"/>
<path d="M18.7106 12.0989C16.0371 12.0989 13.8619 14.274 13.8619 16.9476C13.8619 19.6212 16.0371 21.7964 18.7106 21.7964C21.3842 21.7964 23.5594 19.6212 23.5594 16.9476C23.5594 14.274 21.3842 12.0989 18.7106 12.0989ZM18.7106 19.1515C17.4954 19.1515 16.5067 18.1629 16.5067 16.9475C16.5067 15.7323 17.4954 14.7436 18.7106 14.7436C19.9259 14.7436 20.9146 15.7323 20.9146 16.9475C20.9146 18.1629 19.9259 19.1515 18.7106 19.1515Z" fill="#98A2B3"/>
<path d="M29.2894 26.2041C26.6159 26.2041 24.4407 28.3793 24.4407 31.0528C24.4407 33.7264 26.6159 35.9016 29.2894 35.9016C31.963 35.9016 34.1382 33.7264 34.1382 31.0528C34.1382 28.3793 31.963 26.2041 29.2894 26.2041ZM29.2894 33.2568C28.0742 33.2568 27.0854 32.2681 27.0854 31.0528C27.0854 29.8376 28.0741 28.8489 29.2894 28.8489C30.5047 28.8489 31.4934 29.8376 31.4934 31.0528C31.4934 32.2681 30.5047 33.2568 29.2894 33.2568Z" fill="#98A2B3"/>
</svg>
