<svg width="48" height="48" viewBox="0 0 48 48" fill="none" xmlns="http://www.w3.org/2000/svg">
<path d="M43.0066 39.5829L40.863 12.5721C40.7294 10.8319 39.2577 9.46866 37.5125 9.46866H33.2784V9.27834C33.2784 4.16222 29.1162 0 24.0001 0C18.884 0 14.7218 4.16222 14.7218 9.27834V9.46866H10.4878C8.74247 9.46866 7.27069 10.8318 7.13756 12.5684L4.99331 39.5866C4.82738 41.7499 5.57784 43.9036 7.05216 45.4953C8.52647 47.087 10.6164 48 12.7861 48H35.214C37.3836 48 39.4736 47.0871 40.948 45.4953C42.4223 43.9035 43.1727 41.7499 43.0066 39.5829ZM17.5333 9.27834C17.5333 5.71256 20.4344 2.81156 24.0001 2.81156C27.5658 2.81156 30.4669 5.71266 30.4669 9.27834V9.46866H17.5333V9.27834ZM38.8853 43.5848C37.9273 44.6189 36.6236 45.1884 35.214 45.1884H12.7862C11.3766 45.1884 10.0729 44.6189 9.11494 43.5848C8.15709 42.5507 7.68891 41.2071 7.79653 39.8053L9.94059 12.787C9.96234 12.5028 10.2027 12.2802 10.4878 12.2802H14.7218V15.7429C14.7218 16.5192 15.3512 17.1487 16.1275 17.1487C16.9039 17.1487 17.5333 16.5192 17.5333 15.7429V12.2802H30.4669V15.7429C30.4669 16.5192 31.0963 17.1487 31.8727 17.1487C32.649 17.1487 33.2784 16.5192 33.2784 15.7429V12.2802H37.5125C37.7975 12.2802 38.0378 12.5029 38.06 12.7908L40.2036 39.8016C40.3114 41.2071 39.8431 42.5506 38.8853 43.5848Z" fill="#98A2B3"/>
<path d="M30.3334 23.8392C29.7846 23.2902 28.8944 23.2902 28.3455 23.8392L22.0684 30.1164L19.6547 27.7027C19.1058 27.1537 18.2156 27.1537 17.6666 27.7027C17.1176 28.2517 17.1176 29.1417 17.6666 29.6907L21.0743 33.0985C21.3488 33.373 21.7087 33.5103 22.0683 33.5103C22.4279 33.5103 22.7878 33.3731 23.0622 33.0985L30.3333 25.8274C30.8824 25.2783 30.8824 24.3882 30.3334 23.8392Z" fill="#98A2B3"/>
</svg>
