<svg width="48" height="48" viewBox="0 0 48 48" fill="none" xmlns="http://www.w3.org/2000/svg">
<path d="M42.102 18H41.91C41.6286 17.9975 41.3544 17.9103 41.1233 17.7498C40.8921 17.5893 40.7146 17.3628 40.614 17.1C40.5081 16.8462 40.48 16.5666 40.5334 16.2968C40.5868 16.0271 40.7193 15.7793 40.914 15.585L41.0505 15.4485C41.8733 14.6225 42.3353 13.5041 42.3353 12.3383C42.3353 11.1724 41.8733 10.054 41.0505 9.228L38.784 6.963C37.9587 6.13953 36.8404 5.67707 35.6745 5.67707C34.5086 5.67707 33.3903 6.13953 32.565 6.963L32.4285 7.0995C32.2274 7.29317 31.9741 7.42392 31.6998 7.47571C31.4254 7.5275 31.1419 7.49807 30.884 7.39104C30.6262 7.284 30.4052 7.10402 30.2481 6.87317C30.0911 6.64233 30.0048 6.37066 30 6.0915V5.898C29.9988 4.73194 29.5351 3.61399 28.7105 2.78946C27.886 1.96493 26.7681 1.50119 25.602 1.5H22.398C21.2319 1.50119 20.114 1.96493 19.2895 2.78946C18.4649 3.61399 18.0012 4.73194 18 5.898V6.0915C17.9927 6.36865 17.9052 6.63775 17.7481 6.8662C17.591 7.09465 17.3711 7.27267 17.1149 7.37869C16.8587 7.48472 16.5773 7.51421 16.3047 7.46359C16.0321 7.41298 15.78 7.28442 15.579 7.0935L15.45 6.957C14.6247 6.13353 13.5064 5.67107 12.3405 5.67107C11.1746 5.67107 10.0563 6.13353 9.231 6.957L6.957 9.222C6.13417 10.048 5.67218 11.1664 5.67218 12.3323C5.67218 13.4981 6.13417 14.6165 6.957 15.4425L7.0935 15.579C7.29008 15.7801 7.42166 16.0357 7.47114 16.3125C7.52063 16.5894 7.48574 16.8747 7.371 17.1315C7.26807 17.3872 7.0912 17.6065 6.86301 17.7612C6.63483 17.9159 6.36569 17.9991 6.09 18H5.898C4.73194 18.0012 3.61399 18.4649 2.78946 19.2895C1.96493 20.114 1.50119 21.2319 1.5 22.398V25.602C1.50119 26.7681 1.96493 27.886 2.78946 28.7105C3.61399 29.5351 4.73194 29.9988 5.898 30H6.09C6.37143 30.0025 6.64558 30.0897 6.87675 30.2502C7.10791 30.4107 7.28537 30.6372 7.386 30.9C7.49195 31.1538 7.51999 31.4334 7.46657 31.7032C7.41315 31.9729 7.28067 32.2207 7.086 32.415L6.9495 32.5515C6.12667 33.3775 5.66468 34.4959 5.66468 35.6618C5.66468 36.8276 6.12667 37.946 6.9495 38.772L9.2145 41.0355C10.0397 41.8598 11.1584 42.3228 12.3248 42.3228C13.4911 42.3228 14.6098 41.8598 15.435 41.0355L15.5715 40.899C15.7727 40.7026 16.0283 40.5711 16.3051 40.5217C16.5819 40.4722 16.8672 40.507 17.124 40.6215C17.3798 40.724 17.5991 40.9006 17.7538 41.1285C17.9085 41.3565 17.9917 41.6255 17.9925 41.901V42.0945C17.9921 42.6731 18.1058 43.2462 18.327 43.7809C18.5483 44.3156 18.8728 44.8014 19.282 45.2105C19.6911 45.6197 20.1769 45.9442 20.7116 46.1655C21.2463 46.3867 21.8194 46.5004 22.398 46.5H25.602C26.7681 46.4988 27.886 46.0351 28.7105 45.2105C29.5351 44.386 29.9988 43.2681 30 42.102V41.9085C30.0073 41.6313 30.0948 41.3623 30.2519 41.1338C30.409 40.9053 30.6289 40.7273 30.8851 40.6213C31.1413 40.5153 31.4227 40.4858 31.6953 40.5364C31.9679 40.587 32.22 40.7156 32.421 40.9065L32.5575 41.043C33.3828 41.8665 34.5011 42.3289 35.667 42.3289C36.8329 42.3289 37.9512 41.8665 38.7765 41.043L41.043 38.7795C41.8658 37.9535 42.3278 36.8351 42.3278 35.6693C42.3278 34.5034 41.8658 33.385 41.043 32.559L40.9065 32.4225C40.7099 32.2214 40.5783 31.9658 40.5289 31.6889C40.4794 31.4121 40.5143 31.1268 40.629 30.87C40.7317 30.614 40.9085 30.3944 41.1367 30.2394C41.3649 30.0844 41.6341 30.0011 41.91 30H42.102C43.2681 29.9988 44.386 29.5351 45.2105 28.7105C46.0351 27.886 46.4988 26.7681 46.5 25.602V22.398C46.4988 21.2319 46.0351 20.114 45.2105 19.2895C44.386 18.4649 43.2681 18.0012 42.102 18ZM43.5 25.602C43.4996 25.9727 43.3522 26.328 43.0901 26.5901C42.828 26.8522 42.4727 26.9996 42.102 27H41.91C41.0395 27.0074 40.1905 27.2709 39.4688 27.7575C38.747 28.2442 38.1845 28.9326 37.8513 29.7368C37.5182 30.541 37.4291 31.4255 37.5952 32.28C37.7613 33.1345 38.1753 33.9212 38.7855 34.542L38.9205 34.6785C39.1824 34.9411 39.3294 35.2969 39.3294 35.6677C39.3294 36.0386 39.1824 36.3944 38.9205 36.657L36.654 38.9205C36.3918 39.1827 36.0363 39.3299 35.6655 39.3299C35.2947 39.3299 34.9392 39.1827 34.677 38.9205L34.542 38.784C33.9209 38.1745 33.1343 37.7612 32.28 37.5955C31.4257 37.4297 30.5416 37.519 29.7377 37.852C28.9338 38.1851 28.2456 38.7472 27.7588 39.4685C27.272 40.1898 27.0081 41.0383 27 41.9085V42.102C26.9996 42.4727 26.8522 42.828 26.5901 43.0901C26.328 43.3522 25.9727 43.4996 25.602 43.5H22.398C22.0273 43.4996 21.672 43.3522 21.4099 43.0901C21.1478 42.828 21.0004 42.4727 21 42.102V41.9085C20.9958 41.0366 20.7342 40.1853 20.248 39.4616C19.7618 38.7378 19.0726 38.1737 18.267 37.8402C17.4615 37.5066 16.5753 37.4183 15.7197 37.5865C14.8642 37.7547 14.0774 38.1718 13.458 38.7855L13.3215 38.922C13.0589 39.1834 12.7035 39.3302 12.333 39.3302C11.9625 39.3302 11.6071 39.1834 11.3445 38.922L9.0795 36.6585C8.81762 36.3959 8.67056 36.0401 8.67056 35.6693C8.67056 35.2984 8.81762 34.9426 9.0795 34.68L9.216 34.5435C9.82679 33.9227 10.2412 33.1357 10.4076 32.2808C10.5739 31.4259 10.4849 30.541 10.1514 29.7364C9.81803 28.9318 9.25505 28.2433 8.53277 27.7566C7.81049 27.27 6.96089 27.0068 6.09 27H5.898C5.52735 26.9996 5.17199 26.8522 4.9099 26.5901C4.64781 26.328 4.5004 25.9727 4.5 25.602V22.398C4.5004 22.0273 4.64781 21.672 4.9099 21.4099C5.17199 21.1478 5.52735 21.0004 5.898 21H6.09C6.96046 20.9926 7.80949 20.7291 8.53123 20.2425C9.25297 19.7558 9.81549 19.0674 10.1487 18.2632C10.4818 17.459 10.5709 16.5745 10.4048 15.72C10.2387 14.8655 9.8247 14.0788 9.2145 13.458L9.0795 13.3215C8.81771 13.0591 8.67069 12.7036 8.67069 12.333C8.67069 11.9624 8.81771 11.6069 9.0795 11.3445L11.3445 9.078C11.6067 8.81585 11.9622 8.66857 12.333 8.66857C12.7038 8.66857 13.0593 8.81585 13.3215 9.078L13.4565 9.2145C14.0774 9.82441 14.8641 10.2382 15.7184 10.4042C16.5728 10.5703 17.4572 10.4813 18.2613 10.1484C19.0655 9.81545 19.754 9.25329 20.2409 8.53191C20.7279 7.81053 20.9919 6.96183 21 6.0915V5.898C21.0004 5.52735 21.1478 5.17199 21.4099 4.9099C21.672 4.64781 22.0273 4.5004 22.398 4.5H25.602C25.9727 4.5004 26.328 4.64781 26.5901 4.9099C26.8522 5.17199 26.9996 5.52735 27 5.898V6.0915C27.0077 6.96183 27.2714 7.81066 27.7582 8.53217C28.2449 9.25368 28.9333 9.81597 29.7375 10.149C30.5416 10.4819 31.426 10.5709 32.2804 10.4047C33.1347 10.2386 33.9213 9.82462 34.542 9.2145L34.6785 9.078C34.9407 8.81585 35.2962 8.66857 35.667 8.66857C36.0378 8.66857 36.3933 8.81585 36.6555 9.078L38.9205 11.3445C39.1823 11.6069 39.3293 11.9624 39.3293 12.333C39.3293 12.7036 39.1823 13.0591 38.9205 13.3215L38.784 13.458C38.1737 14.0789 37.7597 14.8657 37.5937 15.7204C37.4276 16.575 37.5168 17.4596 37.8501 18.2639C38.1835 19.0682 38.7462 19.7565 39.4682 20.2431C40.1902 20.7296 41.0394 20.9929 41.91 21H42.102C42.4727 21.0004 42.828 21.1478 43.0901 21.4099C43.3522 21.672 43.4996 22.0273 43.5 22.398V25.602Z" fill="#98A2B3"/>
<path d="M24 13.5C21.9233 13.5 19.8932 14.1158 18.1665 15.2696C16.4398 16.4233 15.094 18.0632 14.2993 19.9818C13.5045 21.9004 13.2966 24.0116 13.7018 26.0484C14.1069 28.0852 15.1069 29.9562 16.5754 31.4246C18.0438 32.8931 19.9148 33.8931 21.9516 34.2982C23.9884 34.7034 26.0996 34.4955 28.0182 33.7007C29.9368 32.906 31.5767 31.5602 32.7304 29.8335C33.8842 28.1068 34.5 26.0767 34.5 24C34.4968 21.2162 33.3896 18.5473 31.4211 16.5789C29.4527 14.6104 26.7838 13.5032 24 13.5ZM24 31.5C22.5166 31.5 21.0666 31.0601 19.8332 30.236C18.5999 29.4119 17.6386 28.2406 17.0709 26.8701C16.5032 25.4997 16.3547 23.9917 16.6441 22.5368C16.9335 21.082 17.6478 19.7456 18.6967 18.6967C19.7456 17.6478 21.082 16.9335 22.5368 16.6441C23.9917 16.3547 25.4997 16.5032 26.8701 17.0709C28.2406 17.6386 29.4119 18.5999 30.236 19.8332C31.0601 21.0666 31.5 22.5166 31.5 24C31.4976 25.9884 30.7067 27.8947 29.3007 29.3007C27.8947 30.7067 25.9884 31.4976 24 31.5Z" fill="#98A2B3"/>
</svg>
