<svg width="48" height="48" viewBox="0 0 48 48" fill="none" xmlns="http://www.w3.org/2000/svg">
<g clip-path="url(#clip0_723_1577)">
<path d="M45.1875 22.9913V17.3323C45.1875 14.5521 42.9753 12.28 40.2188 12.1808V8.70732C40.2188 6.89803 38.7468 5.42607 36.9375 5.42607H27.9039L26.7374 2.18353C26.4399 1.35666 25.8379 0.695909 25.0421 0.323065C24.2464 -0.0498726 23.3533 -0.0896226 22.5277 0.21094L6.135 6.17728C5.31019 6.47747 4.65216 7.08113 4.28203 7.87707C3.91191 8.673 3.87431 9.56522 4.17628 10.3895L4.83488 12.1871C2.14097 12.3537 0 14.5972 0 17.3323V42.8323C0 45.6755 2.31309 47.9886 5.15625 47.9886H40.0312C42.8744 47.9886 45.1875 45.6755 45.1875 42.8323V36.9858C46.7754 36.7576 48 35.3887 48 33.7386V26.2386C48 24.5885 46.7754 23.2195 45.1875 22.9913ZM45.1875 33.7386C45.1875 33.997 44.9772 34.2073 44.7188 34.2073H37.2188C34.8925 34.2073 33 32.3148 33 29.9886C33 27.6623 34.8925 25.7698 37.2188 25.7698H44.7188C44.9772 25.7698 45.1875 25.9801 45.1875 26.2386V33.7386ZM6.81713 9.42197C6.75891 9.26307 6.80156 9.12891 6.83222 9.063C6.86287 8.99719 6.93797 8.87803 7.09697 8.82019L23.4895 2.85385C23.6487 2.796 23.7829 2.83903 23.8488 2.86988C23.9147 2.90072 24.0337 2.97628 24.0909 3.13566L24.915 5.42616H24.2812C22.472 5.42616 21 6.89813 21 8.70741V12.1762H7.82616L6.81713 9.42197ZM37.4062 8.70732V12.1761H23.8125V8.70732C23.8125 8.44885 24.0228 8.23857 24.2812 8.23857H36.9375C37.196 8.23857 37.4062 8.44885 37.4062 8.70732ZM40.0312 45.1761H5.15625C3.86391 45.1761 2.8125 44.1247 2.8125 42.8323V17.3323C2.8125 16.04 3.86391 14.9886 5.15625 14.9886H40.0312C41.3236 14.9886 42.375 16.04 42.375 17.3323V22.9573H37.2188C33.3417 22.9573 30.1875 26.1115 30.1875 29.9886C30.1875 33.8656 33.3417 37.0198 37.2188 37.0198H42.375V42.8323C42.375 44.1247 41.3236 45.1761 40.0312 45.1761Z" fill="#98A2B3"/>
<path d="M37.2188 31.3948C37.9954 31.3948 38.625 30.7652 38.625 29.9885C38.625 29.2119 37.9954 28.5823 37.2188 28.5823C36.4421 28.5823 35.8125 29.2119 35.8125 29.9885C35.8125 30.7652 36.4421 31.3948 37.2188 31.3948Z" fill="#98A2B3"/>
</g>
<defs>
<clipPath id="clip0_723_1577">
<rect width="48" height="48" fill="white"/>
</clipPath>
</defs>
</svg>
