<svg width="48" height="48" viewBox="0 0 48 48" fill="none" xmlns="http://www.w3.org/2000/svg">
<g clip-path="url(#clip0_723_1573)">
<path d="M34.4717 2.9043C38.0512 2.99677 41.4638 4.45991 44.002 6.99805C46.6219 9.61798 48.0956 13.1699 48.0996 16.875L48.0957 17.2012C48.0114 20.5711 46.6312 23.9136 44.5879 27.0439C42.4783 30.2758 39.657 33.2889 36.8105 35.8838C31.1232 41.0684 25.3208 44.5926 24.8457 44.8672L24.8467 44.8682C24.5978 45.0177 24.3128 45.0967 24.0225 45.0967C23.7322 45.0967 23.4471 45.0177 23.1982 44.8682V44.8672C22.6822 44.5815 16.8785 41.0596 11.1953 35.8838C8.34604 33.2889 5.52342 30.2757 3.41309 27.0439C1.30312 23.8127 -0.0996094 20.3553 -0.0996094 16.875L-0.0898438 16.3506C0.00972302 13.7326 0.843409 11.1913 2.32129 9.01953C3.89782 6.70296 6.13502 4.91323 8.74121 3.88379C11.3473 2.85449 14.2026 2.63227 16.9365 3.24609C19.6359 3.8522 22.0932 5.24673 23.999 7.25C25.2921 5.89062 26.8457 4.80499 28.5674 4.05762C30.3213 3.29629 32.213 2.90261 34.125 2.90039L34.4717 2.9043ZM37.3711 6.59863C35.1867 5.9086 32.8387 5.9332 30.6689 6.66797C28.4994 7.4027 26.6203 8.80949 25.3047 10.6846V10.6855C25.1571 10.895 24.9608 11.0655 24.7334 11.1836C24.5058 11.3017 24.2525 11.3633 23.9961 11.3633C23.7397 11.3633 23.4873 11.3016 23.2598 11.1836C23.0323 11.0656 22.8361 10.895 22.6885 10.6855V10.6846C21.3717 8.81258 19.4925 7.40846 17.3242 6.67578C15.1559 5.94315 12.8103 5.91973 10.6279 6.60938C8.44569 7.29902 6.54004 8.66624 5.18652 10.5117C3.83298 12.3574 3.10153 14.5862 3.09961 16.875C3.09961 19.5528 4.16 22.2849 5.82031 24.9199C7.48022 27.5543 9.736 30.0844 12.1152 32.3574C16.8294 36.8611 22.0199 40.344 23.999 41.6104C25.9772 40.341 31.1696 36.857 35.8848 32.3525C38.264 30.0796 40.5198 27.5494 42.1797 24.916C43.84 22.2819 44.9004 19.5509 44.9004 16.875L44.8916 16.4463C44.8068 14.3068 44.0857 12.2373 42.8164 10.5049C41.4625 8.65721 39.5553 7.28868 37.3711 6.59863Z" fill="#98A2B3" stroke="#98A2B3" stroke-width="0.2"/>
</g>
<defs>
<clipPath id="clip0_723_1573">
<rect width="48" height="48" fill="white"/>
</clipPath>
</defs>
</svg>
