<svg width="48" height="48" viewBox="0 0 48 48" fill="none" xmlns="http://www.w3.org/2000/svg">
<path d="M24 42C21.6362 42 19.2956 41.5344 17.1117 40.6298C14.9278 39.7252 12.9435 38.3994 11.2721 36.7279C9.60062 35.0565 8.27475 33.0722 7.37017 30.8883C6.46558 28.7044 6 26.3638 6 24C6 21.6362 6.46558 19.2956 7.37017 17.1117C8.27475 14.9278 9.60062 12.9435 11.2721 11.2721C12.9435 9.60062 14.9278 8.27475 17.1117 7.37017C19.2956 6.46558 21.6362 6 24 6M24 42C26.3638 42 28.7044 41.5344 30.8883 40.6298C33.0722 39.7252 35.0565 38.3994 36.7279 36.7279C38.3994 35.0565 39.7252 33.0722 40.6298 30.8883C41.5344 28.7044 42 26.3638 42 24C42 21.6362 41.5344 19.2956 40.6298 17.1117C39.7252 14.9278 38.3994 12.9435 36.7279 11.2721C35.0565 9.60062 33.0722 8.27475 30.8883 7.37017C28.7044 6.46558 26.3638 6 24 6M24 42V6M23 6C20.1874 8.08329 17.9022 10.7967 16.3275 13.9226C14.7529 17.0485 13.9327 20.4999 13.9327 24C13.9327 27.5001 14.7529 30.9515 16.3275 34.0774C17.9022 37.2033 20.1874 39.9167 23 42M25 6C27.8126 8.08329 30.0978 10.7967 31.6725 13.9226C33.2471 17.0485 34.0673 20.4999 34.0673 24C34.0673 27.5001 33.2471 30.9515 31.6725 34.0774C30.0978 37.2033 27.8126 39.9167 25 42" stroke="#98A2B3" stroke-width="1.5" stroke-linecap="round" stroke-linejoin="round"/>
</svg>
